<svg width="199" height="32" viewBox="0 0 199 32" fill="none" xmlns="http://www.w3.org/2000/svg">
<path d="M4.80249 31.2683L12.6677 7.89334H0L3.83636 1.95965H14.7095L18.0491 0L20.2568 2.12548H35.2424L31.6267 7.89334H18.7117L17.3865 12.1983H37.3397L26.2734 24.7002L35.6836 30.5502H13.0815L24.3137 18.0491H15.455L13.026 25.445L4.80249 31.2683Z" fill="#4285F4"/>
<path d="M46.8766 27.7011L50.3132 10.4264H43.5007L44.3217 6.41162H62.8735L62.0525 10.4264H55.2704L51.8035 27.7011H46.8766Z" fill="white"/>
<path d="M59.8627 27.7014L60.5015 24.5084L76.6813 8.63283L77.107 10.4274H63.6339L64.4549 6.4126H82.3374L81.6985 9.60562L65.5491 25.4811L65.1234 23.6866H79.2962L78.4751 27.7014H59.8627Z" fill="white"/>
<path d="M89.0892 28.0661C87.9335 28.0661 86.8127 27.9595 85.7288 27.747C84.6443 27.5338 83.6604 27.2451 82.7786 26.8801C81.8969 26.5151 81.1514 26.1198 80.5436 25.6941L82.5506 21.8925C83.2199 22.3589 83.9343 22.7595 84.6946 23.0941C85.4549 23.4287 86.2508 23.6826 87.0822 23.8544C87.9135 24.0269 88.7442 24.1128 89.5763 24.1128C90.4884 24.1128 91.2739 24.0113 91.9335 23.8085C92.5924 23.6064 93.0995 23.3221 93.4541 22.9571C93.8087 22.5921 93.9864 22.1465 93.9864 21.6186C93.9864 21.1322 93.7932 20.7369 93.4082 20.4326C93.0225 20.1283 92.5213 19.87 91.9031 19.6567C91.2842 19.4435 90.6002 19.2362 89.8502 19.0334C89.0995 18.8313 88.3451 18.5922 87.5848 18.319C86.8245 18.0458 86.1353 17.7008 85.5164 17.2847C84.8975 16.8694 84.3955 16.3371 84.0113 15.6879C83.6256 15.0393 83.4331 14.2279 83.4331 13.2552C83.4331 11.7952 83.8329 10.5285 84.6346 9.4536C85.4357 8.37939 86.5661 7.54282 88.0253 6.94464C89.4852 6.34719 91.1984 6.04736 93.1654 6.04736C94.6046 6.04736 95.9631 6.20431 97.2409 6.51895C98.5179 6.83359 99.6129 7.28445 100.526 7.87227L98.6705 11.6435C97.8591 11.0964 96.9566 10.6855 95.9638 10.4116C94.9703 10.1377 93.9464 10.0007 92.8922 10.0007C91.9387 10.0007 91.1228 10.1125 90.444 10.3353C89.7644 10.5589 89.2476 10.8676 88.893 11.2629C88.5384 11.6583 88.3607 12.1099 88.3607 12.6163C88.3607 13.1226 88.548 13.5335 88.9233 13.8482C89.2979 14.1628 89.7999 14.4264 90.4284 14.6388C91.057 14.852 91.7462 15.0601 92.4969 15.2622C93.2468 15.465 93.9968 15.6982 94.7475 15.9618C95.4974 16.2253 96.1867 16.56 96.8152 16.9657C97.4437 17.3714 97.9501 17.8837 98.3358 18.5018C98.7208 19.1208 98.914 19.8959 98.914 20.8287C98.914 22.2886 98.5083 23.5612 97.6977 24.6458C96.8863 25.7304 95.7462 26.5721 94.2759 27.1703C92.8056 27.7677 91.0769 28.0676 89.0907 28.0676L89.0892 28.0661Z" fill="white"/>
<path d="M109.678 27.7014L113.936 6.4126H122.847C125.037 6.4126 126.918 6.77314 128.489 7.492C130.059 8.21159 131.261 9.2362 132.092 10.5636C132.924 11.8917 133.339 13.4679 133.339 15.2928C133.339 17.1177 133.02 18.8819 132.381 20.4025C131.742 21.9231 130.835 23.2261 129.659 24.3107C128.483 25.3953 127.084 26.2318 125.462 26.8196C123.84 27.4082 122.045 27.7014 120.079 27.7014H109.678H109.678ZM115.426 23.6562H120.232C121.954 23.6562 123.42 23.3016 124.626 22.5917C125.832 21.8824 126.755 20.9193 127.394 19.7022C128.032 18.4851 128.352 17.1073 128.352 15.566C128.352 14.5117 128.128 13.6041 127.682 12.8438C127.236 12.0835 126.561 11.4957 125.66 11.0796C124.757 10.6643 123.637 10.4563 122.299 10.4563H118.072L115.426 23.6555V23.6562Z" fill="white"/>
<path d="M143.193 27.9443C141.49 27.9443 140.015 27.64 138.768 27.0322C137.521 26.4236 136.553 25.5722 135.864 24.4773C135.174 23.3824 134.829 22.0949 134.829 20.615C134.829 18.7901 135.24 17.1629 136.061 15.7341C136.882 14.3045 138.018 13.1748 139.468 12.3434C140.917 11.512 142.585 11.0967 144.471 11.0967C146.072 11.0967 147.451 11.3958 148.607 11.994C149.763 12.5921 150.66 13.4235 151.299 14.4881C151.938 15.5527 152.257 16.8253 152.257 18.3052C152.257 18.7309 152.231 19.1566 152.18 19.5823C152.129 20.008 152.063 20.4137 151.983 20.7986H138.449L138.935 18.0313H149.762L147.816 18.8827C147.978 17.9706 147.927 17.2051 147.664 16.5862C147.401 15.968 146.975 15.4912 146.387 15.1566C145.799 14.822 145.09 14.6547 144.258 14.6547C143.224 14.6547 142.347 14.9034 141.627 15.3994C140.907 15.8962 140.365 16.581 140 17.4524C139.635 18.3245 139.453 19.3076 139.453 20.4026C139.453 21.6596 139.802 22.5976 140.502 23.2158C141.201 23.8347 142.261 24.1434 143.68 24.1434C144.511 24.1434 145.312 24.0116 146.082 23.7481C146.852 23.4845 147.512 23.1092 148.059 22.6228L150.036 25.7551C149.082 26.5058 148.013 27.0581 146.827 27.4127C145.641 27.7673 144.429 27.945 143.193 27.945V27.9443Z" fill="white"/>
<path d="M160.984 27.944C159.727 27.944 158.561 27.6553 157.486 27.0771C156.411 26.4989 155.55 25.6631 154.901 24.5681C154.252 23.4732 153.928 22.1554 153.928 20.6148C153.928 19.2363 154.156 17.9689 154.612 16.8132C155.068 15.6576 155.711 14.6537 156.543 13.8023C157.375 12.951 158.338 12.2869 159.433 11.8101C160.528 11.3341 161.703 11.0957 162.96 11.0957C164.318 11.0957 165.485 11.3496 166.458 11.856C167.431 12.3631 168.155 13.1486 168.632 14.2132C169.108 15.2778 169.275 16.6518 169.134 18.3339C169.032 20.2602 168.637 21.9481 167.948 23.3977C167.259 24.8472 166.331 25.9673 165.165 26.758C163.999 27.5487 162.605 27.944 160.983 27.944H160.984ZM162.444 24.021C163.376 24.021 164.203 23.793 164.922 23.337C165.642 22.8809 166.21 22.2524 166.625 21.4514C167.04 20.6503 167.248 19.7131 167.248 18.6381C167.248 17.5632 166.918 16.6415 166.26 15.9922C165.601 15.3437 164.683 15.0187 163.507 15.0187C162.595 15.0187 161.774 15.2467 161.044 15.7027C160.314 16.1588 159.741 16.7873 159.325 17.5884C158.909 18.3894 158.702 19.3274 158.702 20.4016C158.702 21.4758 159.031 22.399 159.69 23.0475C160.349 23.6968 161.266 24.021 162.443 24.021H162.444ZM165.698 27.7012L166.337 24.4467L167.401 19.5806L168.04 14.7144L168.71 11.3385H173.454L170.199 27.7004H165.698V27.7012Z" fill="white"/>
<path d="M174.578 27.7013L179.079 5.13477H183.823L179.322 27.7013H174.578Z" fill="white"/>
<path d="M189.693 27.9443C188.253 27.9443 186.9 27.7814 185.633 27.4579C184.366 27.1336 183.388 26.7279 182.699 26.2415L184.524 22.8049C185.233 23.2713 186.1 23.6467 187.124 23.9302C188.148 24.2145 189.177 24.3559 190.211 24.3559C191.326 24.3559 192.137 24.2145 192.644 23.9302C193.15 23.6467 193.404 23.261 193.404 22.7746C193.404 22.3896 193.191 22.1009 192.765 21.9076C192.339 21.7152 191.802 21.5582 191.153 21.4361C190.504 21.3146 189.81 21.1725 189.07 21.0104C188.33 20.8482 187.63 20.6202 186.971 20.3263C186.312 20.0324 185.775 19.6067 185.36 19.0492C184.943 18.4918 184.736 17.7566 184.736 16.8446C184.736 15.6082 185.086 14.5636 185.785 13.7123C186.485 12.8609 187.458 12.2124 188.705 11.7659C189.952 11.3203 191.367 11.0967 192.948 11.0967C194.083 11.0967 195.188 11.2181 196.263 11.4617C197.337 11.7052 198.25 12.0399 199 12.4655L197.297 15.9325C196.527 15.4461 195.72 15.1166 194.879 14.9441C194.038 14.7724 193.232 14.6858 192.461 14.6858C191.347 14.6858 190.54 14.8427 190.044 15.1574C189.547 15.472 189.299 15.8518 189.299 16.2982C189.299 16.6839 189.506 16.9823 189.922 17.1955C190.337 17.4087 190.87 17.5812 191.519 17.7122C192.168 17.844 192.867 17.9861 193.617 18.1379C194.367 18.2897 195.067 18.5133 195.716 18.8072C196.364 19.1011 196.897 19.5171 197.313 20.0539C197.728 20.5913 197.936 21.3161 197.936 22.2282C197.936 23.4653 197.576 24.5143 196.857 25.3761C196.137 26.2378 195.158 26.8811 193.922 27.3076C192.685 27.7333 191.276 27.9465 189.695 27.9465L189.693 27.9443Z" fill="white"/>
</svg>
