<svg width="199" height="32" viewBox="0 0 199 32" fill="none" xmlns="http://www.w3.org/2000/svg">
<path d="M4.80249 31.6342L12.6677 8.25916H0L3.83636 2.32547H14.7095L18.0491 0.365822L20.2568 2.4913H35.2424L31.6267 8.25916H18.7117L17.3865 12.5642H37.3397L26.2734 25.066L35.6836 30.9161H13.0815L24.3137 18.4149H15.455L13.026 25.8108L4.80249 31.6342Z" fill="#4285F4"/>
<path d="M46.8766 28.0673L50.3132 10.7926H43.5007L44.3217 6.77777H62.8735L62.0525 10.7926H55.2704L51.8035 28.0673H46.8766Z" fill="#041123"/>
<path d="M59.8627 28.0673L60.5016 24.8743L76.6814 8.99874L77.107 10.7933H63.6339L64.4549 6.77851H82.3374L81.6985 9.97153L65.5491 25.8471L65.1234 24.0525H79.2962L78.4752 28.0673H59.8627Z" fill="#041123"/>
<path d="M89.0891 28.4323C87.9335 28.4323 86.8126 28.3257 85.7288 28.1132C84.6442 27.9 83.6603 27.6113 82.7786 27.2463C81.8969 26.8813 81.1514 26.486 80.5436 26.0603L82.5506 22.2587C83.2199 22.7251 83.9343 23.1256 84.6946 23.4603C85.4549 23.7949 86.2507 24.0488 87.0821 24.2206C87.9135 24.3931 88.7442 24.4789 89.5763 24.4789C90.4884 24.4789 91.2738 24.3775 91.9335 24.1747C92.5924 23.9726 93.0995 23.6883 93.4541 23.3233C93.8087 22.9583 93.9864 22.5126 93.9864 21.9848C93.9864 21.4984 93.7932 21.1031 93.4082 20.7988C93.0225 20.4945 92.5213 20.2361 91.9031 20.0229C91.2842 19.8097 90.6001 19.6024 89.8502 19.3996C89.0995 19.1975 88.3451 18.9583 87.5848 18.6852C86.8245 18.412 86.1352 18.067 85.5163 17.6509C84.8974 17.2356 84.3955 16.7033 84.0113 16.054C83.6255 15.4055 83.4331 14.5941 83.4331 13.6213C83.4331 12.1614 83.8328 10.8947 84.6346 9.81977C85.4356 8.74556 86.5661 7.90899 88.0253 7.31081C89.4852 6.71337 91.1983 6.41354 93.1654 6.41354C94.6046 6.41354 95.9631 6.57048 97.2409 6.88512C98.5179 7.19976 99.6129 7.65062 100.526 8.23844L98.6704 12.0096C97.859 11.4625 96.9566 11.0517 95.9638 10.7777C94.9703 10.5038 93.9464 10.3669 92.8922 10.3669C91.9386 10.3669 91.1228 10.4787 90.4439 10.7015C89.7643 10.9251 89.2476 11.2338 88.893 11.6291C88.5383 12.0245 88.3607 12.4761 88.3607 12.9824C88.3607 13.4888 88.548 13.8997 88.9233 14.2143C89.2979 14.529 89.7999 14.7925 90.4284 15.005C91.0569 15.2182 91.7462 15.4262 92.4969 15.6284C93.2468 15.8312 93.9968 16.0644 94.7474 16.328C95.4974 16.5915 96.1866 16.9261 96.8152 17.3318C97.4437 17.7375 97.9501 18.2498 98.3358 18.868C98.7208 19.4869 98.914 20.262 98.914 21.1949C98.914 22.6548 98.5083 23.9274 97.6976 25.012C96.8862 26.0965 95.7461 26.9383 94.2759 27.5365C92.8056 28.1339 91.0769 28.4337 89.0906 28.4337L89.0891 28.4323Z" fill="#041123"/>
<path d="M109.678 28.0673L113.936 6.77851H122.847C125.037 6.77851 126.918 7.13905 128.489 7.85791C130.059 8.57751 131.261 9.60211 132.092 10.9295C132.924 12.2577 133.339 13.8338 133.339 15.6587C133.339 17.4836 133.02 19.2478 132.381 20.7684C131.742 22.2891 130.835 23.592 129.659 24.6766C128.483 25.7612 127.084 26.5977 125.462 27.1856C123.84 27.7741 122.045 28.0673 120.079 28.0673H109.678H109.678ZM115.426 24.0222H120.232C121.954 24.0222 123.42 23.6675 124.626 22.9576C125.832 22.2483 126.755 21.2852 127.394 20.0681C128.032 18.851 128.352 17.4732 128.352 15.9319C128.352 14.8777 128.128 13.97 127.682 13.2097C127.236 12.4494 126.561 11.8616 125.66 11.4455C124.757 11.0302 123.637 10.8222 122.299 10.8222H118.072L115.426 24.0214V24.0222Z" fill="#041123"/>
<path d="M143.193 28.3101C141.49 28.3101 140.015 28.0058 138.768 27.398C137.521 26.7895 136.553 25.9381 135.864 24.8432C135.174 23.7482 134.829 22.4608 134.829 20.9809C134.829 19.156 135.24 17.5288 136.061 16.0999C136.882 14.6704 138.018 13.5406 139.467 12.7092C140.917 11.8779 142.585 11.4625 144.471 11.4625C146.072 11.4625 147.451 11.7616 148.607 12.3598C149.762 12.958 150.66 13.7894 151.299 14.854C151.938 15.9186 152.257 17.1912 152.257 18.6711C152.257 19.0968 152.231 19.5225 152.18 19.9481C152.129 20.3738 152.063 20.7795 151.983 21.1645H138.449L138.935 18.3972H149.762L147.816 19.2485C147.978 18.3365 147.927 17.571 147.664 16.952C147.401 16.3339 146.975 15.8571 146.387 15.5225C145.799 15.1879 145.09 15.0205 144.258 15.0205C143.224 15.0205 142.347 15.2693 141.627 15.7653C140.907 16.2621 140.365 16.9469 140 17.8182C139.635 18.6903 139.453 19.6735 139.453 20.7684C139.453 22.0255 139.802 22.9635 140.502 23.5817C141.201 24.2006 142.261 24.5093 143.68 24.5093C144.511 24.5093 145.312 24.3775 146.082 24.1139C146.852 23.8504 147.512 23.4751 148.059 22.9887L150.036 26.121C149.082 26.8717 148.013 27.4239 146.827 27.7786C145.641 28.1332 144.429 28.3109 143.193 28.3109V28.3101Z" fill="#041123"/>
<path d="M160.984 28.3101C159.726 28.3101 158.56 28.0214 157.486 27.4432C156.411 26.865 155.55 26.0292 154.901 24.9342C154.252 23.8393 153.927 22.5215 153.927 20.9809C153.927 19.6024 154.156 18.335 154.612 17.1793C155.068 16.0237 155.711 15.0198 156.543 14.1684C157.374 13.3171 158.338 12.653 159.433 12.1762C160.527 11.7002 161.703 11.4618 162.96 11.4618C164.318 11.4618 165.485 11.7157 166.457 12.2221C167.431 12.7292 168.155 13.5147 168.632 14.5793C169.108 15.6439 169.275 17.0179 169.134 18.7C169.032 20.6263 168.637 22.3142 167.948 23.7638C167.259 25.2133 166.331 26.3335 165.165 27.1241C163.999 27.9148 162.605 28.3101 160.983 28.3101H160.984ZM162.443 24.3871C163.376 24.3871 164.202 24.1591 164.922 23.7031C165.642 23.247 166.209 22.6185 166.625 21.8175C167.04 21.0164 167.248 20.0792 167.248 19.0042C167.248 17.9293 166.918 17.0076 166.26 16.3583C165.601 15.7098 164.683 15.3848 163.507 15.3848C162.595 15.3848 161.773 15.6128 161.043 16.0688C160.314 16.5249 159.741 17.1534 159.325 17.9545C158.909 18.7555 158.702 19.6935 158.702 20.7677C158.702 21.8419 159.031 22.7651 159.69 23.4136C160.349 24.0629 161.266 24.3871 162.443 24.3871H162.443ZM165.698 28.0673L166.337 24.8128L167.401 19.9467L168.04 15.0805L168.71 11.7046H173.454L170.199 28.0665H165.698V28.0673Z" fill="#041123"/>
<path d="M174.578 28.0673L179.079 5.50071H183.823L179.322 28.0673H174.578Z" fill="#041123"/>
<path d="M189.693 28.3101C188.253 28.3101 186.9 28.1472 185.633 27.8237C184.366 27.4995 183.388 27.0938 182.699 26.6074L184.524 23.1708C185.233 23.6372 186.1 24.0125 187.124 24.2961C188.148 24.5803 189.177 24.7218 190.211 24.7218C191.326 24.7218 192.137 24.5803 192.644 24.2961C193.15 24.0125 193.404 23.6268 193.404 23.1404C193.404 22.7554 193.191 22.4667 192.765 22.2735C192.339 22.081 191.802 21.9241 191.153 21.8019C190.504 21.6805 189.81 21.5384 189.07 21.3762C188.33 21.2141 187.63 20.9861 186.971 20.6922C186.312 20.3983 185.775 19.9726 185.359 19.4151C184.943 18.8576 184.736 18.1225 184.736 17.2104C184.736 15.9741 185.086 14.9295 185.785 14.0781C186.485 13.2267 187.458 12.5782 188.705 12.1318C189.952 11.6861 191.366 11.4625 192.948 11.4625C194.083 11.4625 195.188 11.584 196.263 11.8275C197.337 12.0711 198.25 12.4057 199 12.8314L197.297 16.2983C196.527 15.812 195.72 15.4825 194.879 15.31C194.038 15.1382 193.232 15.0516 192.461 15.0516C191.346 15.0516 190.54 15.2086 190.043 15.5232C189.547 15.8379 189.299 16.2176 189.299 16.6641C189.299 17.0498 189.506 17.3481 189.922 17.5613C190.337 17.7745 190.87 17.947 191.519 18.0781C192.167 18.2099 192.867 18.352 193.617 18.5038C194.367 18.6555 195.067 18.8791 195.716 19.173C196.364 19.4669 196.897 19.883 197.313 20.4197C197.728 20.9572 197.936 21.682 197.936 22.5941C197.936 23.8311 197.576 24.8802 196.857 25.7419C196.137 26.6037 195.158 27.247 193.922 27.6734C192.685 28.0991 191.276 28.3123 189.695 28.3123L189.693 28.3101Z" fill="#041123"/>
</svg>
